<?xml version="1.0" encoding="UTF-8" standalone="no"?>
<!-- Created with Inkscape (http://www.inkscape.org/) -->

<svg
   width="318.18155mm"
   height="53.290382mm"
   viewBox="0 0 318.18155 53.290383"
   version="1.1"
   id="svg1"
   xml:space="preserve"
   xmlns:xlink="http://www.w3.org/1999/xlink"
   xmlns="http://www.w3.org/2000/svg"
   xmlns:svg="http://www.w3.org/2000/svg"><defs
     id="defs1"><linearGradient
       id="linearGradient6"><stop
         style="stop-color:#e12afb;stop-opacity:1;"
         offset="0"
         id="stop6" /><stop
         style="stop-color:#53eafd;stop-opacity:1;"
         offset="1"
         id="stop7" /></linearGradient><linearGradient
       xlink:href="#linearGradient6"
       id="linearGradient7"
       x1="0"
       y1="26.645166"
       x2="318.18161"
       y2="26.645166"
       gradientUnits="userSpaceOnUse" /></defs><path
     id="text1"
     style="font-size:49.3889px;font-family:Inter;-inkscape-font-specification:Inter;text-align:start;writing-mode:lr-tb;direction:ltr;text-anchor:start;fill:url(#linearGradient7);fill-opacity:1;stroke-width:0.398198"
     d="M 26.107967,0 A 26.108047,25.948702 0 0 0 0,25.948287 26.108047,25.948702 0 0 0 12.616284,48.115926 l -0.04134,0.02325 c 0,0 7.287076,5.350192 17.115751,5.145422 9.828672,-0.20476 27.552409,-6.702919 32.856909,-20.559469 0.49775,-1.30023 1.440641,-4.079967 -0.241329,-5.735567 -0.8719,-0.85823 -1.602044,-1.04128 -2.457214,-1.04128 H 52.215934 A 26.108047,25.948702 0 0 0 26.107967,0 Z m 76.837173,6.6988159 c -3.199349,0 -6.069112,0.7634902 -8.609296,2.2908163 -2.540184,1.5273258 -4.541784,3.6818298 -6.004802,6.4631718 -1.44694,2.781341 -2.17041,6.053376 -2.17041,9.815421 0,3.665583 0.715776,6.88887 2.146639,9.670211 1.430864,2.781341 3.408348,4.95175 5.932455,6.51123 2.540184,1.559481 5.465873,2.339392 8.777754,2.339392 3.03858,0 5.73184,-0.635217 8.0791,-1.90531 2.36333,-1.286169 4.22024,-3.054823 5.57072,-5.305619 1.36655,-2.250796 2.04948,-4.831171 2.04948,-7.741129 v -4.340821 h -14.63786 v 5.040519 h 8.36073 c -0.0193,1.668833 -0.42254,3.142385 -1.22267,4.413168 -0.80385,1.286169 -1.90496,2.299027 -3.30367,3.038574 -1.38263,0.72347 -2.96657,1.085205 -4.75113,1.085205 -2.15434,0 -4.027145,-0.530544 -5.61878,-1.591634 -1.575557,-1.06109 -2.797245,-2.548566 -3.665409,-4.461743 -0.868165,-1.913177 -1.302246,-4.163627 -1.302246,-6.752043 0,-2.604493 0.425871,-4.86367 1.277958,-6.776847 0.868164,-1.929254 2.089852,-3.424425 3.665409,-4.485515 1.575558,-1.061089 3.440678,-1.591634 5.595008,-1.591634 1.15755,0 2.22685,0.160599 3.20756,0.482141 0.9807,0.321543 1.85656,0.77974 2.62826,1.374594 0.7717,0.594853 1.41513,1.310629 1.9296,2.146639 0.51446,0.819932 0.88389,1.744021 1.10897,2.772957 h 6.48746 c -0.25723,-1.864946 -0.83601,-3.553042 -1.73633,-5.06429 -0.88424,-1.527327 -2.01767,-2.845477 -3.4003,-3.954798 -1.38264,-1.1093208 -2.95837,-1.9615796 -4.72685,-2.5564329 -1.7524,-0.6109305 -3.64164,-0.9162232 -5.66735,-0.9162232 z m 20.42614,0.5787761 v 35.93269 h 6.07715 V 28.813228 c 0,-1.463017 0.24116,-2.652895 0.72347,-3.569291 0.49839,-0.916395 1.16542,-1.591634 2.00143,-2.025716 0.83601,-0.434082 1.78473,-0.651123 2.84582,-0.651123 1.63986,0 2.90209,0.482313 3.78633,1.44694 0.90032,0.964627 1.35031,2.37924 1.35031,4.244185 v 14.952059 h 6.10143 V 27.293941 c 0,-2.186488 -0.38585,-4.027488 -1.15755,-5.52266 -0.7717,-1.495172 -1.841,-2.620914 -3.20756,-3.376538 -1.36655,-0.771702 -2.94228,-1.157552 -4.72684,-1.157552 -2.20256,0 -4.05126,0.595197 -5.54643,1.784904 -0.8315,0.668815 -1.54723,1.529715 -2.17041,2.54403 V 7.277592 Z m 99.1154,0 v 35.93269 h 5.98051 v -3.882967 h 0.0486 c 0.53054,0.980704 1.18166,1.800637 1.95337,2.459798 0.78778,0.643085 1.66363,1.125398 2.62826,1.446941 0.9807,0.321542 2.02589,0.482657 3.13521,0.482657 2.21864,0 4.1561,-0.55466 5.81205,-1.663981 1.65594,-1.109321 2.93407,-2.660934 3.83439,-4.654496 0.91639,-1.993562 1.37459,-4.308665 1.37459,-6.945312 0,-2.604493 -0.4582,-4.903691 -1.37459,-6.897254 -0.9164,-1.993562 -2.20274,-3.545175 -3.85868,-4.654496 -1.63987,-1.109321 -3.56091,-1.663981 -5.76347,-1.663981 -1.09325,0 -2.12253,0.152905 -3.08715,0.45837 -0.94855,0.289388 -1.80851,0.739374 -2.58021,1.350305 -0.7717,0.61093 -1.43103,1.383148 -1.97765,2.315621 h -0.0481 V 7.277592 Z m -15.12053,3.520715 v 6.945313 h -4.43745 v 4.895825 h 4.43745 V 36.79517 c 0,2.170411 0.6188,3.78616 1.85674,4.847249 1.23794,1.045013 3.15949,1.567863 5.76399,1.567863 h 2.00143 1.66398 v -4.895825 h -1.2299 -1.3746 c -0.9807,0 -1.65594,-0.176503 -2.02571,-0.5302 -0.36978,-0.353697 -0.55449,-0.980704 -0.55449,-1.881022 v -13.26379 h 5.1847 V 17.74362 h -5.1847 v -6.945313 z m 72.89116,0 v 6.945313 h -4.43745 v 4.895825 h 4.43745 V 36.79517 c 0,2.170411 0.6188,3.78616 1.85674,4.847249 1.23793,1.045013 3.15898,1.567863 5.76347,1.567863 h 2.00194 1.66398 v -4.895825 h -1.22989 -1.3746 c -0.9807,0 -1.65594,-0.176503 -2.02571,-0.5302 -0.36978,-0.353697 -0.55501,-0.980704 -0.55501,-1.881022 v -13.26379 h 5.18521 V 17.74362 h -5.18521 v -6.945313 z m -117.21558,6.366537 c -2.49196,0 -4.68648,0.562871 -6.58358,1.688269 -1.88102,1.125398 -3.35208,2.692916 -4.41317,4.702555 -1.04501,1.993563 -1.56786,4.308666 -1.56786,6.945313 0,2.636647 0.52285,4.95175 1.56786,6.945312 1.06109,1.993563 2.53215,3.553386 4.41317,4.678784 1.8971,1.109321 4.09162,1.663981 6.58358,1.663981 2.50803,0 4.70255,-0.55466 6.58358,-1.663981 1.88102,-1.125398 3.34386,-2.685221 4.38887,-4.678784 1.06109,-1.993562 1.59164,-4.308665 1.59164,-6.945312 0,-2.636647 -0.53055,-4.95175 -1.59164,-6.945313 -1.04501,-2.009639 -2.50785,-3.577157 -4.38887,-4.702555 -1.88103,-1.125398 -4.07555,-1.688269 -6.58358,-1.688269 z m 142.93753,0 c -2.37942,0 -4.48569,0.571081 -6.31848,1.712557 -1.83279,1.141475 -3.27152,2.717203 -4.31653,4.726843 -1.02894,2.009639 -1.54358,4.308321 -1.54358,6.896737 0,2.572338 0.49822,4.863326 1.495,6.872965 1.01286,1.993563 2.4521,3.56108 4.31705,4.702555 1.86495,1.141476 4.06716,1.712557 6.60735,1.712557 1.99356,0 3.81045,-0.35404 5.45031,-1.061433 1.63987,-0.723471 2.99856,-1.719907 4.07572,-2.989999 1.09325,-1.270092 1.80029,-2.733453 2.12184,-4.389396 h -5.69113 c -0.22508,0.72347 -0.60272,1.358688 -1.13326,1.90531 -0.53055,0.546622 -1.18988,0.972493 -1.97766,1.277958 -0.78778,0.305465 -1.68827,0.45837 -2.70113,0.45837 -1.39871,0 -2.59628,-0.305293 -3.59306,-0.916223 -0.9807,-0.61093 -1.72829,-1.4714 -2.24276,-2.580721 -0.46031,-0.992544 -0.68225,-2.148386 -0.7307,-3.42408 h 18.38337 v -1.663982 c 0,-1.945331 -0.28939,-3.722195 -0.86816,-5.329907 -0.57878,-1.623788 -1.40692,-3.022497 -2.48409,-4.196126 -1.07716,-1.189707 -2.36299,-2.106102 -3.85816,-2.749186 -1.49517,-0.643085 -3.15915,-0.964799 -4.99194,-0.964799 z m -116.55516,0.02429 c -2.07395,0 -3.88263,0.329408 -5.42603,0.98857 -1.52732,0.659162 -2.7172,1.576073 -3.56929,2.749703 -0.83601,1.173629 -1.25367,2.540011 -1.25367,4.099491 0,1.913177 0.62701,3.488905 1.88102,4.726843 1.25402,1.237938 3.10271,2.113796 5.54643,2.628264 l 4.34082,0.892452 c 1.07717,0.225079 1.92122,0.570909 2.53215,1.037146 0.62701,0.466236 0.94051,1.085032 0.94051,1.856734 0,0.900318 -0.42587,1.639693 -1.27796,2.218469 -0.83601,0.578776 -1.98587,0.868164 -3.44888,0.868164 -1.51125,0 -2.70882,-0.337619 -3.59307,-1.012858 -0.86816,-0.691316 -1.36638,-1.655942 -1.49499,-2.89388 h -6.00481 c 0.12862,1.816714 0.69097,3.360116 1.68776,4.630208 0.99678,1.254015 2.31544,2.210948 3.95531,2.870109 1.63987,0.643085 3.48856,0.964283 5.54643,0.964283 2.1061,0 3.97122,-0.329409 5.59501,-0.988571 1.62379,-0.659161 2.89371,-1.591461 3.8101,-2.797245 0.93248,-1.221861 1.39888,-2.661106 1.39888,-4.317049 0,-1.864945 -0.60289,-3.36781 -1.80867,-4.509285 -1.18971,-1.141476 -3.04661,-1.97783 -5.57072,-2.508374 l -4.58215,-0.940512 c -1.06109,-0.241156 -1.88923,-0.59468 -2.48409,-1.060917 -0.59485,-0.482313 -0.89193,-1.101109 -0.89193,-1.856734 0,-0.868164 0.38585,-1.599845 1.15755,-2.194698 0.7717,-0.594853 1.82458,-0.892452 3.15898,-0.892452 1.38263,0 2.50016,0.369946 3.35225,1.109493 0.86817,0.739547 1.30994,1.680058 1.32602,2.821533 h 5.71541 c -0.0482,-1.752405 -0.52233,-3.255787 -1.42265,-4.509802 -0.88424,-1.270092 -2.11414,-2.250623 -3.6897,-2.941939 -1.55948,-0.691316 -3.36815,-1.037146 -5.42602,-1.037146 z M 12.036991,17.582389 h 0.151412 c 1.896924,0 3.424081,1.527151 3.424081,3.424081 v 5.737634 c 0,1.89693 -1.527157,3.42408 -3.424081,3.42408 h -0.151412 c -1.896924,0 -3.42408,-1.52715 -3.42408,-3.42408 V 21.00647 c 0,-1.89693 1.527156,-3.424081 3.42408,-3.424081 z m 12.221477,0 h 0.150895 c 1.896923,0 3.42408,1.527151 3.42408,3.424081 v 5.737634 c 0,1.89693 -1.527157,3.42408 -3.42408,3.42408 h -0.150895 c -1.896924,0 -3.424081,-1.52715 -3.424081,-3.42408 V 21.00647 c 0,-1.89693 1.527157,-3.424081 3.424081,-3.424081 z m 224.035942,0.161231 9.8149,25.321968 -0.94051,2.459799 c -0.22508,0.659161 -0.48214,1.1974 -0.77153,1.615405 -0.27331,0.418005 -0.60272,0.723814 -0.98857,0.91674 -0.36977,0.192925 -0.82797,0.289388 -1.37459,0.289388 h -3.01481 v 4.943367 h 2.00195 1.97714 c 1.23794,0 2.33956,-0.217041 3.30419,-0.651123 0.9807,-0.418005 1.83245,-1.069128 2.55592,-1.953369 0.72347,-0.868164 1.34278,-1.961063 1.85725,-3.279386 L 274.098,17.74362 h -6.36654 l -4.65398,13.26379 c -0.48231,1.398709 -0.94872,2.805628 -1.39888,4.220414 -0.15654,0.491981 -0.29371,0.977574 -0.44442,1.467611 -0.15103,-0.481118 -0.29319,-0.962205 -0.44803,-1.443323 -0.43408,-1.414786 -0.89228,-2.829916 -1.37459,-4.244702 l -4.67827,-13.26379 z m 57.78096,4.244702 c 1.30225,0 2.41978,0.289388 3.35225,0.868164 0.94855,0.562699 1.68023,1.366727 2.1947,2.411739 0.38169,0.751805 0.57711,1.644662 0.6842,2.604492 h -12.4411 c 0.10384,-0.959835 0.2934,-1.852683 0.66352,-2.604492 0.51447,-1.045012 1.24615,-1.84904 2.1947,-2.411739 0.94855,-0.578776 2.06557,-0.868164 3.35173,-0.868164 z m -143.03364,0.2651 c 1.30224,0 2.42747,0.337619 3.37602,1.012858 0.96463,0.659162 1.704,1.607883 2.21847,2.845821 0.53054,1.221861 0.79582,2.684705 0.79582,4.38888 0,1.688097 -0.26528,3.151458 -0.79582,4.389396 -0.51447,1.221861 -1.25384,2.162371 -2.21847,2.821533 -0.94855,0.659162 -2.07378,0.98857 -3.37602,0.98857 -1.30225,0 -2.43568,-0.329408 -3.40031,-0.98857 -0.96463,-0.659162 -1.71221,-1.599672 -2.24276,-2.821533 -0.51447,-1.221861 -0.77204,-2.685222 -0.77204,-4.389396 0,-1.704175 0.25757,-3.167019 0.77204,-4.38888 0.53055,-1.237938 1.27813,-2.186659 2.24276,-2.845821 0.96463,-0.675239 2.09806,-1.012858 3.40031,-1.012858 z m 71.76823,0.02429 c 1.25401,0 2.34691,0.321714 3.27938,0.964799 0.94855,0.627007 1.68844,1.551096 2.21899,2.772957 0.53054,1.205784 0.79582,2.68505 0.79582,4.437456 0,1.752405 -0.26528,3.239365 -0.79582,4.461226 -0.53055,1.221861 -1.27044,2.146467 -2.21899,2.773474 -0.93247,0.627008 -2.02537,0.940511 -3.27938,0.940511 -1.3344,0 -2.49196,-0.329408 -3.47266,-0.98857 -0.9807,-0.675239 -1.74471,-1.62396 -2.29133,-2.845821 -0.54662,-1.237938 -0.81959,-2.684877 -0.81959,-4.34082 0,-1.655943 0.27297,-3.094672 0.81959,-4.316533 0.54662,-1.221861 1.31063,-2.170582 2.29133,-2.845821 0.9807,-0.675239 2.13826,-1.012858 3.47266,-1.012858 z" /></svg>
